<?xml version="1.0" encoding="UTF-8" standalone="no"?>
<!DOCTYPE svg PUBLIC "-//W3C//DTD SVG 1.1//EN"
 "http://www.w3.org/Graphics/SVG/1.1/DTD/svg11.dtd">
<!-- Generated by graphviz version 2.40.1 (20161225.0304)
 -->
<!-- Title: dependencies Pages: 1 -->
<svg width="769pt" height="407pt"
 viewBox="0.00 0.00 769.00 407.20" xmlns="http://www.w3.org/2000/svg" xmlns:xlink="http://www.w3.org/1999/xlink">
<g id="graph0" class="graph" transform="scale(1 1) rotate(0) translate(4 403.2)">
<title>dependencies</title>
<polygon fill="#ffffff" stroke="transparent" points="-4,4 -4,-403.2 765,-403.2 765,4 -4,4"/>
<text text-anchor="start" x="359.5091" y="-42.4" font-family="sans-serif" font-weight="bold" font-size="14.00" fill="#000000">Legend</text>
<polygon fill="#ffffb3" stroke="transparent" points="146.5,-10 146.5,-30 166.5,-30 166.5,-10 146.5,-10"/>
<text text-anchor="start" x="170.129" y="-15.4" font-family="sans-serif" font-size="14.00" fill="#000000"> &#160;Declarations</text>
<polygon fill="#8dd3c7" stroke="transparent" points="259.5,-10 259.5,-30 279.5,-30 279.5,-10 259.5,-10"/>
<text text-anchor="start" x="283.2251" y="-15.4" font-family="sans-serif" font-size="14.00" fill="#000000"> &#160;Module</text>
<polygon fill="#80b1d3" stroke="transparent" points="345.5,-10 345.5,-30 365.5,-30 365.5,-10 345.5,-10"/>
<text text-anchor="start" x="369.2812" y="-15.4" font-family="sans-serif" font-size="14.00" fill="#000000"> &#160;Bootstrap</text>
<polygon fill="#fdb462" stroke="transparent" points="442.5,-10 442.5,-30 462.5,-30 462.5,-10 442.5,-10"/>
<text text-anchor="start" x="466.1732" y="-15.4" font-family="sans-serif" font-size="14.00" fill="#000000"> &#160;Providers</text>
<polygon fill="#fb8072" stroke="transparent" points="538.5,-10 538.5,-30 558.5,-30 558.5,-10 538.5,-10"/>
<text text-anchor="start" x="562.2258" y="-15.4" font-family="sans-serif" font-size="14.00" fill="#000000"> &#160;Exports</text>
<g id="clust1" class="cluster">
<title>cluster_SharedModule</title>
<polygon fill="none" stroke="#000000" stroke-dasharray="1,5" points="8,-70 8,-391.2 753,-391.2 753,-70 8,-70"/>
</g>
<g id="clust2" class="cluster">
<title>cluster_SharedModule_declarations</title>
<polygon fill="none" stroke="#000000" points="346,-139.6 346,-191.6 628,-191.6 628,-139.6 346,-139.6"/>
</g>
<g id="clust5" class="cluster">
<title>cluster_SharedModule_imports</title>
<polygon fill="none" stroke="#000000" points="16,-78 16,-253.2 338,-253.2 338,-78 16,-78"/>
</g>
<g id="clust6" class="cluster">
<title>cluster_SharedModule_exports</title>
<polygon fill="none" stroke="#000000" points="16,-331.2 16,-383.2 745,-383.2 745,-331.2 16,-331.2"/>
</g>
<!-- MinValidatorDirective -->
<g id="node1" class="node">
<title>MinValidatorDirective</title>
<polygon fill="#ffffb3" stroke="#000000" points="620.2865,-183.6 475.7135,-183.6 475.7135,-147.6 620.2865,-147.6 620.2865,-183.6"/>
<text text-anchor="middle" x="548" y="-161.4" font-family="Times,serif" font-size="14.00" fill="#000000">MinValidatorDirective</text>
</g>
<!-- SharedModule -->
<g id="node3" class="node">
<title>SharedModule</title>
<polygon fill="#8dd3c7" stroke="#000000" points="437.4231,-310.2 434.4231,-314.2 413.4231,-314.2 410.4231,-310.2 338.5769,-310.2 338.5769,-274.2 437.4231,-274.2 437.4231,-310.2"/>
<text text-anchor="middle" x="388" y="-288" font-family="Times,serif" font-size="14.00" fill="#000000">SharedModule</text>
</g>
<!-- MinValidatorDirective&#45;&gt;SharedModule -->
<g id="edge1" class="edge">
<title>MinValidatorDirective&#45;&gt;SharedModule</title>
<path fill="none" stroke="#000000" d="M528.6527,-183.655C528.6527,-217.2984 528.6527,-286.2 528.6527,-286.2 528.6527,-286.2 447.5889,-286.2 447.5889,-286.2"/>
<polygon fill="#000000" stroke="#000000" points="447.5889,-282.7001 437.5889,-286.2 447.5888,-289.7001 447.5889,-282.7001"/>
</g>
<!-- NgLetDirective -->
<g id="node2" class="node">
<title>NgLetDirective</title>
<polygon fill="#ffffb3" stroke="#000000" points="457.8473,-183.6 354.1527,-183.6 354.1527,-147.6 457.8473,-147.6 457.8473,-183.6"/>
<text text-anchor="middle" x="406" y="-161.4" font-family="Times,serif" font-size="14.00" fill="#000000">NgLetDirective</text>
</g>
<!-- NgLetDirective&#45;&gt;SharedModule -->
<g id="edge2" class="edge">
<title>NgLetDirective&#45;&gt;SharedModule</title>
<path fill="none" stroke="#000000" d="M395.6438,-183.7387C395.6438,-183.7387 395.6438,-264.095 395.6438,-264.095"/>
<polygon fill="#000000" stroke="#000000" points="392.1438,-264.0949 395.6438,-274.095 399.1438,-264.095 392.1438,-264.0949"/>
</g>
<!-- BreadcrumbsModule  -->
<g id="node5" class="node">
<title>BreadcrumbsModule </title>
<polygon fill="#fb8072" stroke="#000000" points="736.687,-375.2 599.313,-375.2 599.313,-339.2 736.687,-339.2 736.687,-375.2"/>
<text text-anchor="middle" x="668" y="-353" font-family="Times,serif" font-size="14.00" fill="#000000">BreadcrumbsModule </text>
</g>
<!-- SharedModule&#45;&gt;BreadcrumbsModule  -->
<g id="edge4" class="edge">
<title>SharedModule&#45;&gt;BreadcrumbsModule </title>
<path fill="none" stroke="#000000" stroke-dasharray="5,2" d="M437.4667,-298.2C502.792,-298.2 609.6499,-298.2 609.6499,-298.2 609.6499,-298.2 609.6499,-329.1775 609.6499,-329.1775"/>
<polygon fill="#000000" stroke="#000000" points="606.15,-329.1774 609.6499,-339.1775 613.15,-329.1775 606.15,-329.1774"/>
</g>
<!-- MaterialDateModule  -->
<g id="node6" class="node">
<title>MaterialDateModule </title>
<polygon fill="#fb8072" stroke="#000000" points="581.397,-375.2 444.603,-375.2 444.603,-339.2 581.397,-339.2 581.397,-375.2"/>
<text text-anchor="middle" x="513" y="-353" font-family="Times,serif" font-size="14.00" fill="#000000">MaterialDateModule </text>
</g>
<!-- SharedModule&#45;&gt;MaterialDateModule  -->
<g id="edge5" class="edge">
<title>SharedModule&#45;&gt;MaterialDateModule </title>
<path fill="none" stroke="#000000" stroke-dasharray="5,2" d="M431.7232,-310.3061C431.7232,-329.5391 431.7232,-357.2 431.7232,-357.2 431.7232,-357.2 434.4227,-357.2 434.4227,-357.2"/>
<polygon fill="#000000" stroke="#000000" points="434.4227,-360.7001 444.4227,-357.2 434.4227,-353.7001 434.4227,-360.7001"/>
</g>
<!-- MaterialModule  -->
<g id="node7" class="node">
<title>MaterialModule </title>
<polygon fill="#fb8072" stroke="#000000" points="426.4716,-375.2 315.5284,-375.2 315.5284,-339.2 426.4716,-339.2 426.4716,-375.2"/>
<text text-anchor="middle" x="371" y="-353" font-family="Times,serif" font-size="14.00" fill="#000000">MaterialModule </text>
</g>
<!-- SharedModule&#45;&gt;MaterialModule  -->
<g id="edge6" class="edge">
<title>SharedModule&#45;&gt;MaterialModule </title>
<path fill="none" stroke="#000000" stroke-dasharray="5,2" d="M382.5121,-310.3061C382.5121,-310.3061 382.5121,-329.191 382.5121,-329.191"/>
<polygon fill="#000000" stroke="#000000" points="379.0122,-329.1909 382.5121,-339.191 386.0122,-329.191 379.0122,-329.1909"/>
</g>
<!-- MinValidatorDirective  -->
<g id="node8" class="node">
<title>MinValidatorDirective </title>
<polygon fill="#fb8072" stroke="#000000" points="297.7864,-375.2 150.2136,-375.2 150.2136,-339.2 297.7864,-339.2 297.7864,-375.2"/>
<text text-anchor="middle" x="224" y="-353" font-family="Times,serif" font-size="14.00" fill="#000000">MinValidatorDirective </text>
</g>
<!-- SharedModule&#45;&gt;MinValidatorDirective  -->
<g id="edge7" class="edge">
<title>SharedModule&#45;&gt;MinValidatorDirective </title>
<path fill="none" stroke="#000000" stroke-dasharray="5,2" d="M338.3495,-301.2C290.0801,-301.2 224,-301.2 224,-301.2 224,-301.2 224,-329.173 224,-329.173"/>
<polygon fill="#000000" stroke="#000000" points="220.5001,-329.173 224,-339.173 227.5001,-329.173 220.5001,-329.173"/>
</g>
<!-- NgLetDirective  -->
<g id="node9" class="node">
<title>NgLetDirective </title>
<polygon fill="#fb8072" stroke="#000000" points="131.8478,-375.2 24.1522,-375.2 24.1522,-339.2 131.8478,-339.2 131.8478,-375.2"/>
<text text-anchor="middle" x="78" y="-353" font-family="Times,serif" font-size="14.00" fill="#000000">NgLetDirective </text>
</g>
<!-- SharedModule&#45;&gt;NgLetDirective  -->
<g id="edge8" class="edge">
<title>SharedModule&#45;&gt;NgLetDirective </title>
<path fill="none" stroke="#000000" stroke-dasharray="5,2" d="M338.5413,-292.2C251.0278,-292.2 78.0282,-292.2 78.0282,-292.2 78.0282,-292.2 78.0282,-329.0939 78.0282,-329.0939"/>
<polygon fill="#000000" stroke="#000000" points="74.5281,-329.0939 78.0282,-339.0939 81.5281,-329.0938 74.5281,-329.0939"/>
</g>
<!-- {
 &#160;&#160;&#160;: , : [
 &#160;&#160;&#160;&#160;&#160;&#160;&#160;{
 &#160;&#160;&#160;&#160;&#160;&#160;&#160;&#160;&#160;&#160;&#160;: , : {
 &#160;&#160;&#160;&#160;&#160;&#160;&#160;&#160;&#160;&#160;&#160;&#160;&#160;&#160;&#160;: true, : false, : false, : false, : false, : false
 &#160;&#160;&#160;&#160;&#160;&#160;&#160;&#160;&#160;&#160;&#160;}
 &#160;&#160;&#160;&#160;&#160;&#160;&#160;}
 &#160;&#160;&#160;]
} -->
<g id="node4" class="node">
<title>{
 &#160;&#160;&#160;: , : [
 &#160;&#160;&#160;&#160;&#160;&#160;&#160;{
 &#160;&#160;&#160;&#160;&#160;&#160;&#160;&#160;&#160;&#160;&#160;: , : {
 &#160;&#160;&#160;&#160;&#160;&#160;&#160;&#160;&#160;&#160;&#160;&#160;&#160;&#160;&#160;: true, : false, : false, : false, : false, : false
 &#160;&#160;&#160;&#160;&#160;&#160;&#160;&#160;&#160;&#160;&#160;}
 &#160;&#160;&#160;&#160;&#160;&#160;&#160;}
 &#160;&#160;&#160;]
}</title>
<polygon fill="#8dd3c7" stroke="#000000" points="329.7345,-245.3001 326.7345,-249.3001 305.7345,-249.3001 302.7345,-245.3001 24.2655,-245.3001 24.2655,-85.8999 329.7345,-85.8999 329.7345,-245.3001"/>
<text text-anchor="middle" x="177" y="-228.6" font-family="Times,serif" font-size="14.00" fill="#000000">{</text>
<text text-anchor="middle" x="177" y="-211.8" font-family="Times,serif" font-size="14.00" fill="#000000"> &#160;&#160;&#160;: , : [</text>
<text text-anchor="middle" x="177" y="-195" font-family="Times,serif" font-size="14.00" fill="#000000"> &#160;&#160;&#160;&#160;&#160;&#160;&#160;{</text>
<text text-anchor="middle" x="177" y="-178.2" font-family="Times,serif" font-size="14.00" fill="#000000"> &#160;&#160;&#160;&#160;&#160;&#160;&#160;&#160;&#160;&#160;&#160;: , : {</text>
<text text-anchor="middle" x="177" y="-161.4" font-family="Times,serif" font-size="14.00" fill="#000000"> &#160;&#160;&#160;&#160;&#160;&#160;&#160;&#160;&#160;&#160;&#160;&#160;&#160;&#160;&#160;: true, : false, : false, : false, : false, : false</text>
<text text-anchor="middle" x="177" y="-144.6" font-family="Times,serif" font-size="14.00" fill="#000000"> &#160;&#160;&#160;&#160;&#160;&#160;&#160;&#160;&#160;&#160;&#160;}</text>
<text text-anchor="middle" x="177" y="-127.8" font-family="Times,serif" font-size="14.00" fill="#000000"> &#160;&#160;&#160;&#160;&#160;&#160;&#160;}</text>
<text text-anchor="middle" x="177" y="-111" font-family="Times,serif" font-size="14.00" fill="#000000"> &#160;&#160;&#160;]</text>
<text text-anchor="middle" x="177" y="-94.2" font-family="Times,serif" font-size="14.00" fill="#000000">}</text>
</g>
<!-- {
 &#160;&#160;&#160;: , : [
 &#160;&#160;&#160;&#160;&#160;&#160;&#160;{
 &#160;&#160;&#160;&#160;&#160;&#160;&#160;&#160;&#160;&#160;&#160;: , : {
 &#160;&#160;&#160;&#160;&#160;&#160;&#160;&#160;&#160;&#160;&#160;&#160;&#160;&#160;&#160;: true, : false, : false, : false, : false, : false
 &#160;&#160;&#160;&#160;&#160;&#160;&#160;&#160;&#160;&#160;&#160;}
 &#160;&#160;&#160;&#160;&#160;&#160;&#160;}
 &#160;&#160;&#160;]
}&#45;&gt;SharedModule -->
<g id="edge3" class="edge">
<title>{
 &#160;&#160;&#160;: , : [
 &#160;&#160;&#160;&#160;&#160;&#160;&#160;{
 &#160;&#160;&#160;&#160;&#160;&#160;&#160;&#160;&#160;&#160;&#160;: , : {
 &#160;&#160;&#160;&#160;&#160;&#160;&#160;&#160;&#160;&#160;&#160;&#160;&#160;&#160;&#160;: true, : false, : false, : false, : false, : false
 &#160;&#160;&#160;&#160;&#160;&#160;&#160;&#160;&#160;&#160;&#160;}
 &#160;&#160;&#160;&#160;&#160;&#160;&#160;}
 &#160;&#160;&#160;]
}&#45;&gt;SharedModule</title>
<path fill="none" stroke="#000000" d="M322.6909,-245.3433C322.6909,-266.3162 322.6909,-283.2 322.6909,-283.2 322.6909,-283.2 328.5004,-283.2 328.5004,-283.2"/>
<polygon fill="#000000" stroke="#000000" points="328.5005,-286.7001 338.5004,-283.2 328.5004,-279.7001 328.5005,-286.7001"/>
</g>
</g>
</svg>
