<?xml version="1.0" encoding="UTF-8" standalone="no"?>
<!DOCTYPE svg PUBLIC "-//W3C//DTD SVG 1.1//EN"
 "http://www.w3.org/Graphics/SVG/1.1/DTD/svg11.dtd">
<!-- Generated by graphviz version 2.40.1 (20161225.0304)
 -->
<!-- Title: dependencies Pages: 1 -->
<svg width="2424pt" height="211pt"
 viewBox="0.00 0.00 2424.00 211.00" xmlns="http://www.w3.org/2000/svg" xmlns:xlink="http://www.w3.org/1999/xlink">
<g id="graph0" class="graph" transform="scale(1 1) rotate(0) translate(4 207)">
<title>dependencies</title>
<polygon fill="#ffffff" stroke="transparent" points="-4,4 -4,-207 2420,-207 2420,4 -4,4"/>
<text text-anchor="start" x="1187.0091" y="-42.4" font-family="sans-serif" font-weight="bold" font-size="14.00" fill="#000000">Legend</text>
<polygon fill="#ffffb3" stroke="transparent" points="974,-10 974,-30 994,-30 994,-10 974,-10"/>
<text text-anchor="start" x="997.629" y="-15.4" font-family="sans-serif" font-size="14.00" fill="#000000"> &#160;Declarations</text>
<polygon fill="#8dd3c7" stroke="transparent" points="1087,-10 1087,-30 1107,-30 1107,-10 1087,-10"/>
<text text-anchor="start" x="1110.7251" y="-15.4" font-family="sans-serif" font-size="14.00" fill="#000000"> &#160;Module</text>
<polygon fill="#80b1d3" stroke="transparent" points="1173,-10 1173,-30 1193,-30 1193,-10 1173,-10"/>
<text text-anchor="start" x="1196.7812" y="-15.4" font-family="sans-serif" font-size="14.00" fill="#000000"> &#160;Bootstrap</text>
<polygon fill="#fdb462" stroke="transparent" points="1270,-10 1270,-30 1290,-30 1290,-10 1270,-10"/>
<text text-anchor="start" x="1293.6732" y="-15.4" font-family="sans-serif" font-size="14.00" fill="#000000"> &#160;Providers</text>
<polygon fill="#fb8072" stroke="transparent" points="1366,-10 1366,-30 1386,-30 1386,-10 1366,-10"/>
<text text-anchor="start" x="1389.7258" y="-15.4" font-family="sans-serif" font-size="14.00" fill="#000000"> &#160;Exports</text>
<g id="clust1" class="cluster">
<title>cluster_HomeModule</title>
<polygon fill="none" stroke="#000000" stroke-dasharray="1,5" points="8,-70 8,-195 2408,-195 2408,-70 8,-70"/>
</g>
<g id="clust2" class="cluster">
<title>cluster_HomeModule_declarations</title>
<polygon fill="none" stroke="#000000" points="1094,-78 1094,-130 2400,-130 2400,-78 1094,-78"/>
</g>
<g id="clust12" class="cluster">
<title>cluster_HomeModule_imports</title>
<polygon fill="none" stroke="#000000" points="246,-78 246,-130 1086,-130 1086,-78 246,-78"/>
</g>
<g id="clust15" class="cluster">
<title>cluster_HomeModule_providers</title>
<polygon fill="none" stroke="#000000" points="16,-78 16,-130 238,-130 238,-78 16,-78"/>
</g>
<!-- AboutComponent -->
<g id="node1" class="node">
<title>AboutComponent</title>
<polygon fill="#ffffb3" stroke="#000000" points="2392.3301,-122 2275.6699,-122 2275.6699,-86 2392.3301,-86 2392.3301,-122"/>
<text text-anchor="middle" x="2334" y="-99.8" font-family="Times,serif" font-size="14.00" fill="#000000">AboutComponent</text>
</g>
<!-- HomeModule -->
<g id="node10" class="node">
<title>HomeModule</title>
<polygon fill="#8dd3c7" stroke="#000000" points="1286.7619,-187 1283.7619,-191 1262.7619,-191 1259.7619,-187 1193.2381,-187 1193.2381,-151 1286.7619,-151 1286.7619,-187"/>
<text text-anchor="middle" x="1240" y="-164.8" font-family="Times,serif" font-size="14.00" fill="#000000">HomeModule</text>
</g>
<!-- AboutComponent&#45;&gt;HomeModule -->
<g id="edge1" class="edge">
<title>AboutComponent&#45;&gt;HomeModule</title>
<path fill="none" stroke="#000000" d="M2334,-122.3228C2334,-145.6602 2334,-183 2334,-183 2334,-183 1297.0078,-183 1297.0078,-183"/>
<polygon fill="#000000" stroke="#000000" points="1297.0078,-179.5001 1287.0078,-183 1297.0078,-186.5001 1297.0078,-179.5001"/>
</g>
<!-- BlogComponent -->
<g id="node2" class="node">
<title>BlogComponent</title>
<polygon fill="#ffffb3" stroke="#000000" points="2258.0605,-122 2149.9395,-122 2149.9395,-86 2258.0605,-86 2258.0605,-122"/>
<text text-anchor="middle" x="2204" y="-99.8" font-family="Times,serif" font-size="14.00" fill="#000000">BlogComponent</text>
</g>
<!-- BlogComponent&#45;&gt;HomeModule -->
<g id="edge2" class="edge">
<title>BlogComponent&#45;&gt;HomeModule</title>
<path fill="none" stroke="#000000" d="M2204,-122.2921C2204,-144.2057 2204,-178 2204,-178 2204,-178 1296.8215,-178 1296.8215,-178"/>
<polygon fill="#000000" stroke="#000000" points="1296.8215,-174.5001 1286.8215,-178 1296.8215,-181.5001 1296.8215,-174.5001"/>
</g>
<!-- CoordmapComponent -->
<g id="node3" class="node">
<title>CoordmapComponent</title>
<polygon fill="#ffffb3" stroke="#000000" points="2132.4355,-122 1991.5645,-122 1991.5645,-86 2132.4355,-86 2132.4355,-122"/>
<text text-anchor="middle" x="2062" y="-99.8" font-family="Times,serif" font-size="14.00" fill="#000000">CoordmapComponent</text>
</g>
<!-- CoordmapComponent&#45;&gt;HomeModule -->
<g id="edge3" class="edge">
<title>CoordmapComponent&#45;&gt;HomeModule</title>
<path fill="none" stroke="#000000" d="M2062,-122.0267C2062,-142.7672 2062,-174 2062,-174 2062,-174 1296.8477,-174 1296.8477,-174"/>
<polygon fill="#000000" stroke="#000000" points="1296.8477,-170.5001 1286.8477,-174 1296.8476,-177.5001 1296.8477,-170.5001"/>
</g>
<!-- FeaturesComponent -->
<g id="node4" class="node">
<title>FeaturesComponent</title>
<polygon fill="#ffffb3" stroke="#000000" points="1973.2548,-122 1844.7452,-122 1844.7452,-86 1973.2548,-86 1973.2548,-122"/>
<text text-anchor="middle" x="1909" y="-99.8" font-family="Times,serif" font-size="14.00" fill="#000000">FeaturesComponent</text>
</g>
<!-- FeaturesComponent&#45;&gt;HomeModule -->
<g id="edge4" class="edge">
<title>FeaturesComponent&#45;&gt;HomeModule</title>
<path fill="none" stroke="#000000" d="M1909,-122.1061C1909,-141.3391 1909,-169 1909,-169 1909,-169 1296.7769,-169 1296.7769,-169"/>
<polygon fill="#000000" stroke="#000000" points="1296.7769,-165.5001 1286.7769,-169 1296.7768,-172.5001 1296.7769,-165.5001"/>
</g>
<!-- FooterComponent -->
<g id="node5" class="node">
<title>FooterComponent</title>
<polygon fill="#ffffb3" stroke="#000000" points="1826.8809,-122 1709.1191,-122 1709.1191,-86 1826.8809,-86 1826.8809,-122"/>
<text text-anchor="middle" x="1768" y="-99.8" font-family="Times,serif" font-size="14.00" fill="#000000">FooterComponent</text>
</g>
<!-- FooterComponent&#45;&gt;HomeModule -->
<g id="edge5" class="edge">
<title>FooterComponent&#45;&gt;HomeModule</title>
<path fill="none" stroke="#000000" d="M1768,-122.302C1768,-140.2699 1768,-165 1768,-165 1768,-165 1296.8565,-165 1296.8565,-165"/>
<polygon fill="#000000" stroke="#000000" points="1296.8565,-161.5001 1286.8565,-165 1296.8564,-168.5001 1296.8565,-161.5001"/>
</g>
<!-- HeaderComponent -->
<g id="node6" class="node">
<title>HeaderComponent</title>
<polygon fill="#ffffb3" stroke="#000000" points="1690.7437,-122 1569.2563,-122 1569.2563,-86 1690.7437,-86 1690.7437,-122"/>
<text text-anchor="middle" x="1630" y="-99.8" font-family="Times,serif" font-size="14.00" fill="#000000">HeaderComponent</text>
</g>
<!-- HeaderComponent&#45;&gt;HomeModule -->
<g id="edge6" class="edge">
<title>HeaderComponent&#45;&gt;HomeModule</title>
<path fill="none" stroke="#000000" d="M1630,-122.027C1630,-138.3976 1630,-160 1630,-160 1630,-160 1297.0431,-160 1297.0431,-160"/>
<polygon fill="#000000" stroke="#000000" points="1297.0431,-156.5001 1287.0431,-160 1297.0431,-163.5001 1297.0431,-156.5001"/>
</g>
<!-- HomeLayoutComponent -->
<g id="node7" class="node">
<title>HomeLayoutComponent</title>
<polygon fill="#ffffb3" stroke="#000000" points="1551.7021,-122 1396.2979,-122 1396.2979,-86 1551.7021,-86 1551.7021,-122"/>
<text text-anchor="middle" x="1474" y="-99.8" font-family="Times,serif" font-size="14.00" fill="#000000">HomeLayoutComponent</text>
</g>
<!-- HomeLayoutComponent&#45;&gt;HomeModule -->
<g id="edge7" class="edge">
<title>HomeLayoutComponent&#45;&gt;HomeModule</title>
<path fill="none" stroke="#000000" d="M1474,-122.1871C1474,-137.1824 1474,-156 1474,-156 1474,-156 1296.791,-156 1296.791,-156"/>
<polygon fill="#000000" stroke="#000000" points="1296.791,-152.5001 1286.791,-156 1296.791,-159.5001 1296.791,-152.5001"/>
</g>
<!-- LandingComponent -->
<g id="node8" class="node">
<title>LandingComponent</title>
<polygon fill="#ffffb3" stroke="#000000" points="1377.9902,-122 1250.0098,-122 1250.0098,-86 1377.9902,-86 1377.9902,-122"/>
<text text-anchor="middle" x="1314" y="-99.8" font-family="Times,serif" font-size="14.00" fill="#000000">LandingComponent</text>
</g>
<!-- LandingComponent&#45;&gt;HomeModule -->
<g id="edge8" class="edge">
<title>LandingComponent&#45;&gt;HomeModule</title>
<path fill="none" stroke="#000000" d="M1268.4429,-122.1061C1268.4429,-122.1061 1268.4429,-140.991 1268.4429,-140.991"/>
<polygon fill="#000000" stroke="#000000" points="1264.9429,-140.9909 1268.4429,-150.991 1271.9429,-140.991 1264.9429,-140.9909"/>
</g>
<!-- VehiclesComponent -->
<g id="node9" class="node">
<title>VehiclesComponent</title>
<polygon fill="#ffffb3" stroke="#000000" points="1232.309,-122 1101.691,-122 1101.691,-86 1232.309,-86 1232.309,-122"/>
<text text-anchor="middle" x="1167" y="-99.8" font-family="Times,serif" font-size="14.00" fill="#000000">VehiclesComponent</text>
</g>
<!-- VehiclesComponent&#45;&gt;HomeModule -->
<g id="edge9" class="edge">
<title>VehiclesComponent&#45;&gt;HomeModule</title>
<path fill="none" stroke="#000000" d="M1212.6368,-122.1061C1212.6368,-122.1061 1212.6368,-140.991 1212.6368,-140.991"/>
<polygon fill="#000000" stroke="#000000" points="1209.1368,-140.9909 1212.6368,-150.991 1216.1368,-140.991 1209.1368,-140.9909"/>
</g>
<!-- AppConfirmModule -->
<g id="node11" class="node">
<title>AppConfirmModule</title>
<polygon fill="#8dd3c7" stroke="#000000" points="1077.5954,-122 1074.5954,-126 1053.5954,-126 1050.5954,-122 946.4046,-122 946.4046,-86 1077.5954,-86 1077.5954,-122"/>
<text text-anchor="middle" x="1012" y="-99.8" font-family="Times,serif" font-size="14.00" fill="#000000">AppConfirmModule</text>
</g>
<!-- AppConfirmModule&#45;&gt;HomeModule -->
<g id="edge10" class="edge">
<title>AppConfirmModule&#45;&gt;HomeModule</title>
<path fill="none" stroke="#000000" d="M1012,-122.1871C1012,-137.1824 1012,-156 1012,-156 1012,-156 1183.0347,-156 1183.0347,-156"/>
<polygon fill="#000000" stroke="#000000" points="1183.0347,-159.5001 1193.0347,-156 1183.0347,-152.5001 1183.0347,-159.5001"/>
</g>
<!-- DraggableModule -->
<g id="node12" class="node">
<title>DraggableModule</title>
<polygon fill="#8dd3c7" stroke="#000000" points="928.8515,-122 925.8515,-126 904.8515,-126 901.8515,-122 811.1485,-122 811.1485,-86 928.8515,-86 928.8515,-122"/>
<text text-anchor="middle" x="870" y="-99.8" font-family="Times,serif" font-size="14.00" fill="#000000">DraggableModule</text>
</g>
<!-- DraggableModule&#45;&gt;HomeModule -->
<g id="edge11" class="edge">
<title>DraggableModule&#45;&gt;HomeModule</title>
<path fill="none" stroke="#000000" d="M870,-122.027C870,-138.3976 870,-160 870,-160 870,-160 1183.1392,-160 1183.1392,-160"/>
<polygon fill="#000000" stroke="#000000" points="1183.1393,-163.5001 1193.1392,-160 1183.1392,-156.5001 1183.1393,-163.5001"/>
</g>
<!-- ScrollToTopModule -->
<g id="node13" class="node">
<title>ScrollToTopModule</title>
<polygon fill="#8dd3c7" stroke="#000000" points="793.594,-122 790.594,-126 769.594,-126 766.594,-122 662.406,-122 662.406,-86 793.594,-86 793.594,-122"/>
<text text-anchor="middle" x="728" y="-99.8" font-family="Times,serif" font-size="14.00" fill="#000000">ScrollToTopModule</text>
</g>
<!-- ScrollToTopModule&#45;&gt;HomeModule -->
<g id="edge12" class="edge">
<title>ScrollToTopModule&#45;&gt;HomeModule</title>
<path fill="none" stroke="#000000" d="M728,-122.302C728,-140.2699 728,-165 728,-165 728,-165 1183.2061,-165 1183.2061,-165"/>
<polygon fill="#000000" stroke="#000000" points="1183.2061,-168.5001 1193.2061,-165 1183.2061,-161.5001 1183.2061,-168.5001"/>
</g>
<!-- SharedModule -->
<g id="node14" class="node">
<title>SharedModule</title>
<polygon fill="#8dd3c7" stroke="#000000" points="644.4231,-122 641.4231,-126 620.4231,-126 617.4231,-122 545.5769,-122 545.5769,-86 644.4231,-86 644.4231,-122"/>
<text text-anchor="middle" x="595" y="-99.8" font-family="Times,serif" font-size="14.00" fill="#000000">SharedModule</text>
</g>
<!-- SharedModule&#45;&gt;HomeModule -->
<g id="edge13" class="edge">
<title>SharedModule&#45;&gt;HomeModule</title>
<path fill="none" stroke="#000000" d="M595,-122.1061C595,-141.3391 595,-169 595,-169 595,-169 1183.0936,-169 1183.0936,-169"/>
<polygon fill="#000000" stroke="#000000" points="1183.0937,-172.5001 1193.0936,-169 1183.0936,-165.5001 1183.0937,-172.5001"/>
</g>
<!-- SvgViewerModule -->
<g id="node15" class="node">
<title>SvgViewerModule</title>
<polygon fill="#8dd3c7" stroke="#000000" points="528.0269,-122 525.0269,-126 504.0269,-126 501.0269,-122 405.9731,-122 405.9731,-86 528.0269,-86 528.0269,-122"/>
<text text-anchor="middle" x="467" y="-99.8" font-family="Times,serif" font-size="14.00" fill="#000000">SvgViewerModule</text>
</g>
<!-- SvgViewerModule&#45;&gt;HomeModule -->
<g id="edge14" class="edge">
<title>SvgViewerModule&#45;&gt;HomeModule</title>
<path fill="none" stroke="#000000" d="M467,-122.0267C467,-142.7672 467,-174 467,-174 467,-174 1183.098,-174 1183.098,-174"/>
<polygon fill="#000000" stroke="#000000" points="1183.098,-177.5001 1193.098,-174 1183.0979,-170.5001 1183.098,-177.5001"/>
</g>
<!-- ThemePickerModule -->
<g id="node16" class="node">
<title>ThemePickerModule</title>
<polygon fill="#8dd3c7" stroke="#000000" points="388.1853,-122 385.1853,-126 364.1853,-126 361.1853,-122 253.8147,-122 253.8147,-86 388.1853,-86 388.1853,-122"/>
<text text-anchor="middle" x="321" y="-99.8" font-family="Times,serif" font-size="14.00" fill="#000000">ThemePickerModule</text>
</g>
<!-- ThemePickerModule&#45;&gt;HomeModule -->
<g id="edge15" class="edge">
<title>ThemePickerModule&#45;&gt;HomeModule</title>
<path fill="none" stroke="#000000" d="M321,-122.2921C321,-144.2057 321,-178 321,-178 321,-178 1183.1632,-178 1183.1632,-178"/>
<polygon fill="#000000" stroke="#000000" points="1183.1632,-181.5001 1193.1632,-178 1183.1632,-174.5001 1183.1632,-181.5001"/>
</g>
<!-- CoordBikeshareService -->
<g id="node17" class="node">
<title>CoordBikeshareService</title>
<ellipse fill="#fdb462" stroke="#000000" cx="127" cy="-104" rx="102.9879" ry="18"/>
<text text-anchor="middle" x="127" y="-99.8" font-family="Times,serif" font-size="14.00" fill="#000000">CoordBikeshareService</text>
</g>
<!-- CoordBikeshareService&#45;&gt;HomeModule -->
<g id="edge16" class="edge">
<title>CoordBikeshareService&#45;&gt;HomeModule</title>
<path fill="none" stroke="#000000" d="M127,-122.3228C127,-145.6602 127,-183 127,-183 127,-183 1182.8867,-183 1182.8867,-183"/>
<polygon fill="#000000" stroke="#000000" points="1182.8867,-186.5001 1192.8867,-183 1182.8866,-179.5001 1182.8867,-186.5001"/>
</g>
</g>
</svg>
