<?xml version="1.0" encoding="UTF-8" standalone="no"?>
<!DOCTYPE svg PUBLIC "-//W3C//DTD SVG 1.1//EN"
 "http://www.w3.org/Graphics/SVG/1.1/DTD/svg11.dtd">
<!-- Generated by graphviz version 2.40.1 (20161225.0304)
 -->
<!-- Title: dependencies Pages: 1 -->
<svg width="1315pt" height="211pt"
 viewBox="0.00 0.00 1315.00 211.00" xmlns="http://www.w3.org/2000/svg" xmlns:xlink="http://www.w3.org/1999/xlink">
<g id="graph0" class="graph" transform="scale(1 1) rotate(0) translate(4 207)">
<title>dependencies</title>
<polygon fill="#ffffff" stroke="transparent" points="-4,4 -4,-207 1311,-207 1311,4 -4,4"/>
<text text-anchor="start" x="632.5091" y="-42.4" font-family="sans-serif" font-weight="bold" font-size="14.00" fill="#000000">Legend</text>
<polygon fill="#ffffb3" stroke="transparent" points="419.5,-10 419.5,-30 439.5,-30 439.5,-10 419.5,-10"/>
<text text-anchor="start" x="443.129" y="-15.4" font-family="sans-serif" font-size="14.00" fill="#000000"> &#160;Declarations</text>
<polygon fill="#8dd3c7" stroke="transparent" points="532.5,-10 532.5,-30 552.5,-30 552.5,-10 532.5,-10"/>
<text text-anchor="start" x="556.2251" y="-15.4" font-family="sans-serif" font-size="14.00" fill="#000000"> &#160;Module</text>
<polygon fill="#80b1d3" stroke="transparent" points="618.5,-10 618.5,-30 638.5,-30 638.5,-10 618.5,-10"/>
<text text-anchor="start" x="642.2812" y="-15.4" font-family="sans-serif" font-size="14.00" fill="#000000"> &#160;Bootstrap</text>
<polygon fill="#fdb462" stroke="transparent" points="715.5,-10 715.5,-30 735.5,-30 735.5,-10 715.5,-10"/>
<text text-anchor="start" x="739.1732" y="-15.4" font-family="sans-serif" font-size="14.00" fill="#000000"> &#160;Providers</text>
<polygon fill="#fb8072" stroke="transparent" points="811.5,-10 811.5,-30 831.5,-30 831.5,-10 811.5,-10"/>
<text text-anchor="start" x="835.2258" y="-15.4" font-family="sans-serif" font-size="14.00" fill="#000000"> &#160;Exports</text>
<g id="clust1" class="cluster">
<title>cluster_ExperimentsModule</title>
<polygon fill="none" stroke="#000000" stroke-dasharray="1,5" points="8,-70 8,-195 1299,-195 1299,-70 8,-70"/>
</g>
<g id="clust2" class="cluster">
<title>cluster_ExperimentsModule_declarations</title>
<polygon fill="none" stroke="#000000" points="292,-78 292,-130 1291,-130 1291,-78 292,-78"/>
</g>
<g id="clust9" class="cluster">
<title>cluster_ExperimentsModule_imports</title>
<polygon fill="none" stroke="#000000" points="16,-78 16,-130 284,-130 284,-78 16,-78"/>
</g>
<!-- AnimationsComponent -->
<g id="node1" class="node">
<title>AnimationsComponent</title>
<polygon fill="#ffffb3" stroke="#000000" points="1283.161,-122 1136.839,-122 1136.839,-86 1283.161,-86 1283.161,-122"/>
<text text-anchor="middle" x="1210" y="-99.8" font-family="Times,serif" font-size="14.00" fill="#000000">AnimationsComponent</text>
</g>
<!-- ExperimentsModule -->
<g id="node7" class="node">
<title>ExperimentsModule</title>
<polygon fill="#8dd3c7" stroke="#000000" points="693.309,-187 690.309,-191 669.309,-191 666.309,-187 562.691,-187 562.691,-151 693.309,-151 693.309,-187"/>
<text text-anchor="middle" x="628" y="-164.8" font-family="Times,serif" font-size="14.00" fill="#000000">ExperimentsModule</text>
</g>
<!-- AnimationsComponent&#45;&gt;ExperimentsModule -->
<g id="edge1" class="edge">
<title>AnimationsComponent&#45;&gt;ExperimentsModule</title>
<path fill="none" stroke="#000000" d="M1210,-122.2921C1210,-144.2057 1210,-178 1210,-178 1210,-178 703.3498,-178 703.3498,-178"/>
<polygon fill="#000000" stroke="#000000" points="703.3499,-174.5001 693.3498,-178 703.3498,-181.5001 703.3499,-174.5001"/>
</g>
<!-- ContextMenuComponent -->
<g id="node2" class="node">
<title>ContextMenuComponent</title>
<polygon fill="#ffffb3" stroke="#000000" points="1119.3243,-122 960.6757,-122 960.6757,-86 1119.3243,-86 1119.3243,-122"/>
<text text-anchor="middle" x="1040" y="-99.8" font-family="Times,serif" font-size="14.00" fill="#000000">ContextMenuComponent</text>
</g>
<!-- ContextMenuComponent&#45;&gt;ExperimentsModule -->
<g id="edge2" class="edge">
<title>ContextMenuComponent&#45;&gt;ExperimentsModule</title>
<path fill="none" stroke="#000000" d="M1040,-122.1061C1040,-141.3391 1040,-169 1040,-169 1040,-169 703.2826,-169 703.2826,-169"/>
<polygon fill="#000000" stroke="#000000" points="703.2827,-165.5001 693.2826,-169 703.2826,-172.5001 703.2827,-165.5001"/>
</g>
<!-- FileUploadComponent -->
<g id="node3" class="node">
<title>FileUploadComponent</title>
<polygon fill="#ffffb3" stroke="#000000" points="943.323,-122 798.677,-122 798.677,-86 943.323,-86 943.323,-122"/>
<text text-anchor="middle" x="871" y="-99.8" font-family="Times,serif" font-size="14.00" fill="#000000">FileUploadComponent</text>
</g>
<!-- FileUploadComponent&#45;&gt;ExperimentsModule -->
<g id="edge3" class="edge">
<title>FileUploadComponent&#45;&gt;ExperimentsModule</title>
<path fill="none" stroke="#000000" d="M871,-122.027C871,-138.3976 871,-160 871,-160 871,-160 703.4392,-160 703.4392,-160"/>
<polygon fill="#000000" stroke="#000000" points="703.4392,-156.5001 693.4392,-160 703.4392,-163.5001 703.4392,-156.5001"/>
</g>
<!-- HammertimeDirective -->
<g id="node4" class="node">
<title>HammertimeDirective</title>
<polygon fill="#ffffb3" stroke="#000000" points="780.9468,-122 639.0532,-122 639.0532,-86 780.9468,-86 780.9468,-122"/>
<text text-anchor="middle" x="710" y="-99.8" font-family="Times,serif" font-size="14.00" fill="#000000">HammertimeDirective</text>
</g>
<!-- HammertimeDirective&#45;&gt;ExperimentsModule -->
<g id="edge4" class="edge">
<title>HammertimeDirective&#45;&gt;ExperimentsModule</title>
<path fill="none" stroke="#000000" d="M666.0905,-122.1061C666.0905,-122.1061 666.0905,-140.991 666.0905,-140.991"/>
<polygon fill="#000000" stroke="#000000" points="662.5905,-140.9909 666.0905,-150.991 669.5905,-140.991 662.5905,-140.9909"/>
</g>
<!-- StickyTableComponent -->
<g id="node5" class="node">
<title>StickyTableComponent</title>
<polygon fill="#ffffb3" stroke="#000000" points="621.4832,-122 472.5168,-122 472.5168,-86 621.4832,-86 621.4832,-122"/>
<text text-anchor="middle" x="547" y="-99.8" font-family="Times,serif" font-size="14.00" fill="#000000">StickyTableComponent</text>
</g>
<!-- StickyTableComponent&#45;&gt;ExperimentsModule -->
<g id="edge5" class="edge">
<title>StickyTableComponent&#45;&gt;ExperimentsModule</title>
<path fill="none" stroke="#000000" d="M592.1687,-122.1061C592.1687,-122.1061 592.1687,-140.991 592.1687,-140.991"/>
<polygon fill="#000000" stroke="#000000" points="588.6687,-140.9909 592.1687,-150.991 595.6687,-140.991 588.6687,-140.9909"/>
</g>
<!-- VirtualScrollComponent -->
<g id="node6" class="node">
<title>VirtualScrollComponent</title>
<polygon fill="#ffffb3" stroke="#000000" points="454.4256,-122 299.5744,-122 299.5744,-86 454.4256,-86 454.4256,-122"/>
<text text-anchor="middle" x="377" y="-99.8" font-family="Times,serif" font-size="14.00" fill="#000000">VirtualScrollComponent</text>
</g>
<!-- VirtualScrollComponent&#45;&gt;ExperimentsModule -->
<g id="edge6" class="edge">
<title>VirtualScrollComponent&#45;&gt;ExperimentsModule</title>
<path fill="none" stroke="#000000" d="M377,-122.027C377,-138.3976 377,-160 377,-160 377,-160 552.7079,-160 552.7079,-160"/>
<polygon fill="#000000" stroke="#000000" points="552.708,-163.5001 562.7079,-160 552.7079,-156.5001 552.708,-163.5001"/>
</g>
<!-- ContextMenuModule -->
<g id="node8" class="node">
<title>ContextMenuModule</title>
<polygon fill="#8dd3c7" stroke="#000000" points="276.0422,-122 273.0422,-126 252.0422,-126 249.0422,-122 139.9578,-122 139.9578,-86 276.0422,-86 276.0422,-122"/>
<text text-anchor="middle" x="208" y="-99.8" font-family="Times,serif" font-size="14.00" fill="#000000">ContextMenuModule</text>
</g>
<!-- ContextMenuModule&#45;&gt;ExperimentsModule -->
<g id="edge7" class="edge">
<title>ContextMenuModule&#45;&gt;ExperimentsModule</title>
<path fill="none" stroke="#000000" d="M208,-122.1061C208,-141.3391 208,-169 208,-169 208,-169 552.8358,-169 552.8358,-169"/>
<polygon fill="#000000" stroke="#000000" points="552.8359,-172.5001 562.8358,-169 552.8358,-165.5001 552.8359,-172.5001"/>
</g>
<!-- SharedModule -->
<g id="node9" class="node">
<title>SharedModule</title>
<polygon fill="#8dd3c7" stroke="#000000" points="122.4231,-122 119.4231,-126 98.4231,-126 95.4231,-122 23.5769,-122 23.5769,-86 122.4231,-86 122.4231,-122"/>
<text text-anchor="middle" x="73" y="-99.8" font-family="Times,serif" font-size="14.00" fill="#000000">SharedModule</text>
</g>
<!-- SharedModule&#45;&gt;ExperimentsModule -->
<g id="edge8" class="edge">
<title>SharedModule&#45;&gt;ExperimentsModule</title>
<path fill="none" stroke="#000000" d="M73,-122.2921C73,-144.2057 73,-178 73,-178 73,-178 552.7024,-178 552.7024,-178"/>
<polygon fill="#000000" stroke="#000000" points="552.7025,-181.5001 562.7024,-178 552.7024,-174.5001 552.7025,-181.5001"/>
</g>
</g>
</svg>
